<?xml version="1.0" encoding="UTF-8"?>
<!DOCTYPE svg PUBLIC "-//W3C//DTD SVG 1.1//EN" "http://www.w3.org/Graphics/SVG/1.1/DTD/svg11.dtd">
<!-- Creator: CorelDRAW X5 -->
<svg xmlns="http://www.w3.org/2000/svg" xml:space="preserve" width="134.62mm" height="196.424mm" style="shape-rendering:geometricPrecision; text-rendering:geometricPrecision; image-rendering:optimizeQuality; fill-rule:evenodd; clip-rule:evenodd"
viewBox="0 0 13462 19642"
 xmlns:xlink="http://www.w3.org/1999/xlink">
 <defs>
  <style type="text/css">
   <![CDATA[
    .fil1 {fill:#2B2A29}
    .fil2 {fill:#56698F}
    .fil5 {fill:#5B5B5B}
    .fil4 {fill:#748187}
    .fil0 {fill:#5B539B}
    .fil3 {fill:#A3BED9}
   ]]>
  </style>
 </defs>
 <g id="Layer_x0020_1">
  <metadata id="CorelCorpID_0Corel-Layer"/>
  <g id="_250100688">
   <path class="fil0" d="M381 9244c0,513 299,1347 559,1795l398 585c241,280 447,472 742,703 50,39 84,65 136,97 185,114 230,156 461,283 350,191 1127,431 1487,431l5135 0c159,0 317,-36 440,-67 255,-63 541,-133 771,-246 116,-57 248,-93 348,-162 -31,-119 -1328,-1411 -1473,-1561 -72,-74 -454,-505 -522,-505l-6052 0 0 -8073 7817 0 0 5366c-80,-56 -98,-93 -157,-170l-475 -529c-60,-80 -86,-106 -153,-174 -140,-143 -592,-682 -769,-889 -86,-100 -50,-405 -50,-637l0 -1021c1,-116 36,-285 -69,-285l-4539 0 0 4749 2820 0c-9,-109 -77,-139 -201,-267 -148,-154 -628,-629 -693,-730l1335 -1371c100,68 982,1005 1146,1175 105,109 194,176 298,285 101,105 185,192 287,297 306,317 2758,2915 2894,3010 190,-132 524,-917 596,-1187 78,-295 183,-597 183,-926l0 -5342c0,-450 -328,-1427 -586,-1815l-193 -299c-157,-229 -172,-226 -321,-404 -51,-61 -77,-60 -131,-126 -63,-78 -24,-52 -111,-122 -150,-122 -126,-139 -395,-327 -52,-36 -92,-58 -141,-91 -322,-213 -228,-172 -610,-341 -329,-146 -530,-219 -906,-297 -70,-15 -115,-25 -195,-37 -242,-36 -8127,-12 -9110,-12l0 9236z"/>
   <g>
    <g>
     <path class="fil1" d="M1361 16558c-519,0 -877,-409 -877,-919 0,-294 75,-525 243,-700 276,-287 634,-332 985,-186 253,105 426,365 481,639 60,297 -9,666 -216,880 -38,39 -68,78 -110,109 -35,26 -97,69 -140,89 -102,48 -225,87 -367,87zm-1361 -1037c0,268 8,457 120,699 147,319 340,508 641,648 130,61 339,126 521,126l1609 0 0 -389 -731 0c117,-106 241,-142 379,-381 204,-352 208,-799 52,-1178 -37,-91 -118,-231 -181,-305 -89,-106 -133,-158 -252,-243 -304,-216 -512,-261 -887,-261 -641,0 -1271,595 -1271,1284z"/>
     <path class="fil1" d="M6226 14826l821 0c185,0 405,106 532,244 186,203 188,470 188,745l-1541 0 0 -990zm-450 -212l0 2285 450 0 0 -624 1541 0 0 624 439 0 0 -1378c0,-164 -63,-355 -113,-471 -163,-383 -585,-695 -1035,-695l-1069 0c-131,0 -214,120 -214,259z"/>
     <path class="fil1" d="M8467 14567l0 2321 450 0 0 -1779 211 227c75,78 133,151 208,230 35,37 75,73 106,112 40,50 58,72 102,117 38,40 68,72 107,112l844 931c177,188 402,38 402,-127l0 -2368 -439 0 0 1779c-60,-42 -513,-555 -638,-686l-793 -866c-23,-27 -25,-37 -50,-65 -75,-82 -219,-271 -385,-173 -78,46 -124,129 -124,235z"/>
     <path class="fil1" d="M2955 15604c0,581 240,938 667,1162 117,62 309,122 480,122l1080 0c106,0 202,-98 202,-212l0 -2333 -439 0 0 2050c0,27 -8,35 -34,35 -272,0 -754,24 -990,-47 -113,-34 -247,-111 -321,-194 -47,-53 -95,-119 -124,-188 -43,-100 -72,-210 -72,-349l0 -1308 -450 0 0 1261z"/>
     <path class="fil1" d="M11077 14779c0,27 8,35 34,35l945 0 0 2073 439 0 0 -2073 967 0 0 -471 -2385 0 0 436z"/>
    </g>
    <g>
     <path class="fil2" d="M7651 19631l820 0c25,-51 154,-226 196,-286 70,-100 135,-191 204,-289l1170 -1654c20,-27 39,-46 47,-79 -192,0 -384,0 -576,0 -321,0 -201,-73 -514,372 -44,63 -78,114 -122,177 -86,121 -160,230 -245,352 -214,303 -807,1135 -980,1409z"/>
     <path class="fil3" d="M10354 19631l820 0c26,-51 62,-96 97,-145l1421 -2011c23,-33 91,-118 100,-153 -192,0 -384,0 -576,0 -314,0 -216,-53 -391,197 -85,121 -162,228 -245,352l-245 352c-44,63 -80,113 -123,175l-245 352c-159,225 -483,678 -611,882z"/>
     <path class="fil4" d="M9033 19626l809 0c61,-97 131,-190 198,-284l1326 -1876c36,-51 74,-99 104,-148l-842 0c-143,228 -423,610 -597,862 -107,155 -981,1376 -999,1447z"/>
    </g>
    <g>
     <path class="fil5" d="M6925 19216l-1307 0 0 -507 1064 0c171,0 299,147 299,330 0,50 14,177 -55,177zm-410 -942l-897 0 0 -507 1130 0c110,0 84,507 -233,507zm-1296 -754l0 1944c0,83 88,177 166,177l1551 0c254,0 443,-235 443,-507 0,-574 -239,-626 -310,-730 44,-175 133,-102 133,-589 0,-264 -222,-471 -432,-471l-1374 0c-52,0 -90,22 -119,50 -23,22 -58,85 -58,127z"/>
     <path class="fil5" d="M3026 17769l784 0c339,0 632,296 632,671l0 212 -1415 0 0 -884zm-369 -247l0 2120 369 0 0 -565 1421 0 0 565 371 0 0 -1202c0,-224 -76,-442 -178,-612 -165,-275 -506,-475 -808,-475l-1008 -8c-77,0 -166,96 -166,177z"/>
     <path class="fil5" d="M300 19404c0,66 18,125 47,162 30,38 79,73 141,73l1806 0 0 -424 -1596 0 0 -1873 -399 0 0 2062z"/>
    </g>
   </g>
  </g>
 </g>
</svg>
