<?xml version="1.0" encoding="UTF-8"?>
<!DOCTYPE svg PUBLIC "-//W3C//DTD SVG 1.1//EN" "http://www.w3.org/Graphics/SVG/1.1/DTD/svg11.dtd">
<!-- Creator: CorelDRAW X5 -->
<svg xmlns="http://www.w3.org/2000/svg" xml:space="preserve" width="297.002mm" height="83.0256mm" style="shape-rendering:geometricPrecision; text-rendering:geometricPrecision; image-rendering:optimizeQuality; fill-rule:evenodd; clip-rule:evenodd"
viewBox="0 0 29700 8303"
 xmlns:xlink="http://www.w3.org/1999/xlink">
 <defs>
  <style type="text/css">
   <![CDATA[
    .fil1 {fill:#2B2A29}
    .fil2 {fill:#56698F}
    .fil5 {fill:#5B5B5B}
    .fil4 {fill:#748187}
    .fil0 {fill:#5B539B}
    .fil3 {fill:#A3BED9}
   ]]>
  </style>
 </defs>
 <g id="Layer_x0020_1">
  <metadata id="CorelCorpID_0Corel-Layer"/>
  <g id="_366976696">
   <path class="fil0" d="M0 5867c0,312 182,820 341,1093l242 356c147,170 272,287 452,428 30,24 51,40 83,59 112,69 140,95 281,172 213,116 686,262 905,262l3127 0c97,0 193,-22 268,-41 155,-38 330,-81 470,-150 71,-35 151,-57 212,-99 -19,-72 -809,-859 -897,-951 -44,-45 -277,-307 -318,-307l-3685 0 0 -4916 4760 0 0 3268c-49,-34 -60,-57 -96,-103l-289 -322c-36,-49 -53,-64 -93,-106 -85,-87 -360,-416 -468,-541 -52,-61 -31,-247 -31,-388l0 -622c0,-71 22,-173 -42,-173l-2764 0 0 2892 1717 0c-5,-66 -47,-85 -122,-163 -90,-94 -382,-383 -422,-445l813 -835c61,41 598,612 698,716 64,66 118,107 182,174 61,64 113,117 174,181 186,193 1679,1775 1762,1833 116,-80 319,-558 363,-723 48,-180 112,-363 112,-564l0 -3253c0,-274 -200,-869 -357,-1105l-118 -182c-96,-140 -105,-138 -196,-246 -31,-37 -47,-36 -80,-77 -38,-47 -15,-32 -68,-75 -92,-74 -76,-85 -241,-199 -32,-22 -56,-36 -86,-56 -196,-130 -139,-105 -372,-208 -200,-89 -323,-133 -551,-181 -43,-9 -70,-15 -119,-22 -147,-22 -4949,-8 -5548,-8l0 5625z"/>
   <g>
    <path class="fil1" d="M11113 3565c-797,0 -1348,-628 -1348,-1411 0,-451 115,-806 373,-1075 424,-441 974,-510 1513,-285 388,162 655,561 739,981 92,456 -13,1022 -332,1352 -58,60 -104,120 -168,168 -54,40 -148,106 -215,137 -156,74 -345,134 -563,134zm-2091 -1592c0,412 13,702 184,1074 225,490 523,780 985,995 200,93 521,193 801,193l2471 0 0 -597 -1123 0c179,-163 370,-218 582,-584 313,-541 319,-1228 79,-1809 -58,-140 -181,-354 -278,-469 -137,-163 -204,-242 -387,-373 -467,-332 -786,-401 -1362,-401 -985,0 -1953,914 -1953,1972z"/>
    <path class="fil1" d="M18586 904l1261 0c284,0 622,163 817,375 286,312 289,722 289,1145l-2367 0 0 -1520zm-691 -326l0 3510 691 0 0 -959 2367 0 0 959 674 0 0 -2117c0,-253 -97,-545 -173,-724 -250,-588 -898,-1068 -1590,-1068l-1642 0c-201,0 -328,184 -328,398z"/>
    <path class="fil1" d="M22028 507l0 3565 691 0 0 -2732 324 348c115,120 204,232 320,353 54,57 115,112 163,173 61,76 90,110 156,180 59,62 105,110 164,172l1296 1430c272,289 618,59 618,-195l0 -3637 -674 0 0 2732c-92,-64 -788,-852 -981,-1054l-1218 -1330c-35,-42 -39,-57 -78,-100 -115,-125 -337,-417 -592,-266 -121,71 -190,198 -190,362z"/>
    <path class="fil1" d="M13562 2099c0,893 369,1442 1025,1786 180,95 475,187 737,187l1659 0c163,0 311,-150 311,-326l0 -3583 -674 0 0 3149c0,42 -12,54 -52,54 -417,0 -1159,37 -1521,-72 -173,-52 -379,-170 -493,-298 -73,-82 -146,-183 -191,-288 -66,-153 -111,-322 -111,-535l0 -2009 -691 0 0 1936z"/>
    <path class="fil1" d="M26037 832c0,42 12,54 52,54l1451 0 0 3185 674 0 0 -3185 1486 0 0 -724 -3663 0 0 670z"/>
   </g>
   <g>
    <path class="fil2" d="M20775 8284l1259 0c39,-78 237,-348 301,-439 108,-153 207,-293 314,-445l1797 -2541c30,-42 60,-71 73,-122 -295,0 -590,0 -885,0 -493,0 -308,-112 -790,571 -68,96 -119,175 -187,271 -131,186 -246,354 -377,540 -328,466 -1240,1743 -1505,2164z"/>
    <path class="fil3" d="M24926 8284l1259 0c39,-79 96,-148 148,-222l2183 -3089c36,-51 140,-182 153,-235 -295,0 -590,0 -885,0 -483,0 -331,-81 -600,303 -130,186 -248,350 -377,540l-377 540c-68,96 -122,173 -190,269l-377 540c-244,346 -741,1041 -939,1355z"/>
    <path class="fil4" d="M22897 8277l1242 0c94,-149 201,-291 304,-437l2037 -2882c56,-79 113,-152 160,-227l-1293 0c-220,350 -650,937 -916,1324 -165,239 -1507,2113 -1534,2223z"/>
   </g>
   <g>
    <path class="fil5" d="M19659 7647l-2008 0 0 -778 1634 0c263,0 460,226 460,507 0,77 21,271 -85,271zm-630 -1448l-1379 0 0 -778 1736 0c168,0 129,778 -357,778zm-1991 -1158l0 2986c0,127 136,271 255,271l2383 0c391,0 681,-360 681,-778 0,-881 -366,-962 -477,-1122 67,-268 204,-157 204,-905 0,-406 -341,-724 -664,-724l-2110 0c-80,0 -139,34 -183,77 -35,34 -89,131 -89,195z"/>
    <path class="fil5" d="M13669 5425l1204 0c520,0 970,454 970,1031l0 326 -2174 0 0 -1357zm-566 -380l0 3257 566 0 0 -869 2182 0 0 869 570 0 0 -1846c0,-344 -116,-679 -273,-940 -254,-423 -776,-730 -1242,-730l-1549 -13c-118,0 -255,148 -255,271z"/>
    <path class="fil5" d="M9483 7936c0,101 27,191 72,249 46,58 121,113 217,113l2774 0 0 -651 -2451 0 0 -2877 -613 0 0 3167z"/>
   </g>
  </g>
 </g>
</svg>
